# xmcd
#
# Track frame offsets:
#	150
#	12900
#	28050
#	39450
#	52800
#	68700
#	82012
#	95625
#	109800
#	125025
#	139050
#	153600
#	165750
#	181125
#	194775
#	206900
#	220650
#	233550
#	248700
#	262100
#
# Disc length: 3665 seconds
#
# Revision: 0
# Processed by: cddbd v1.5.2PL0 Copyright (c) Steve Scherf et al.
# Submitted via: EasyCDDAExtractor 2010.4.0.0
#
DISCID=1b0e4f14
DTITLE=Various Artist - Playin' it Down South
DYEAR=1994
DGENRE=Blues
TTITLE0=Monk Hazel and His Bienville Roof Orchestra - Sizzling The Blues
TTITLE1=Jones and Collins Astoria Hot - Damp Weather
TTITLE2=Jones and Collins Astoria Hot - Astoria Strut
TTITLE3=Henry Allen and His New York Orchestra - Pleasin' Paul
TTITLE4=Jelly Roll Morton - Sidewalk Blues
TTITLE5=King Oliver and His Dixie Syncopaters - Someday Sweetheart
TTITLE6=New Orleans Rhythm Kings - Panama
TTITLE7=New Orleans Rhythm Kings - Mr Jelly Lord
TTITLE8=Louis Dumains Jazzola Eight - Franklin St. Blues
TTITLE9=New Orleans Owls - That's a Plenty
TTITLE10=Celestins Original Tuxedo Jazz Orchestra - As You Like
TTITLE11=Freddie Keppards Jazz Cardinals - Salty Dog
TTITLE12=Charlie Johnston and his Orchestra - Hot Bones and Rice
TTITLE13=Duke Ellington and His Famous Orchestra - East St Louis Toodle Loo
TTITLE14=Fats Waller and His Buddies - The Minor Drag
TTITLE15=Eddie Condon and His Footwarmers - Makin' Friends
TTITLE16=Miff Mole and His Llittle Molers - Imagination
TTITLE17=Paul Whiteman and His Otrchestra - San
TTITLE18=Bessie Smith Accomp by James P. Johnson - Lock and Key
TTITLE19=Fletcher Henderson and His Orchestra - Sugar Foot Stomp
EXTD=
EXTT0=
EXTT1=
EXTT2=
EXTT3=
EXTT4=
EXTT5=
EXTT6=
EXTT7=
EXTT8=
EXTT9=
EXTT10=
EXTT11=
EXTT12=
EXTT13=
EXTT14=
EXTT15=
EXTT16=
EXTT17=
EXTT18=
EXTT19=
PLAYORDER=
